<svg width="50" height="50" xmlns="http://www.w3.org/2000/svg" preserveAspectRatio="xMidYMid meet">

 <g>
  <title>background</title>
  <rect fill="none" id="canvas_background" height="402" width="582" y="-1" x="-1"/>
 </g>
 <g>
  <title>Layer 1</title>
  <g id="svg_1" fill="#000000" transform="translate(0, 50) scale(0.1, -0.1)">
   <path stroke="#fff" fill="#f1f5f9" id="svg_2" d="m151,479c-12,-13 -30,-50 -39,-81c-16,-52 -23,-61 -63,-81c-55,-28 -58,-53 -9,-82c20,-11 35,-25 35,-31c0,-6 -18,-28 -40,-48l-40,-38l25,-21c14,-12 37,-29 50,-38c22,-14 23,-18 11,-33c-8,-9 -11,-20 -7,-24c4,-4 16,4 27,18c21,28 24,22 -47,77l-29,22l29,26c33,31 45,25 76,-40c28,-58 82,-105 120,-105c38,0 92,47 118,103c31,66 44,73 78,42l29,-25l-21,-18c-12,-9 -33,-26 -48,-37l-26,-20l19,-25c11,-14 23,-22 27,-18c4,4 1,15 -7,24c-12,15 -11,19 11,33c13,9 36,26 50,38l25,21l-43,40c-48,44 -48,42 17,91c32,24 22,47 -31,71c-37,16 -43,24 -59,77c-24,75 -52,107 -88,98c-14,-4 -37,-7 -51,-7c-14,0 -37,3 -51,7c-20,5 -31,1 -48,-16zm99,-11c14,0 37,3 52,7c24,6 29,3 47,-34c31,-60 28,-78 -16,-90c-66,-19 -191,-8 -207,18c-3,4 6,31 20,60c22,50 26,53 52,46c15,-4 38,-7 52,-7zm0,-143c41,0 90,4 109,9c26,6 32,5 29,-5c-16,-50 -260,-50 -276,0c-3,10 3,11 29,5c19,-5 68,-9 109,-9zm-129,-32c25,-14 58,-18 129,-18c71,0 104,4 129,18c43,22 53,21 82,-2l23,-18l-25,-16c-74,-48 -344,-48 -418,0l-25,16l23,18c29,23 39,24 82,2zm19,-96c0,-22 37,-49 62,-45c13,2 27,13 33,26c5,12 12,22 15,22c3,0 10,-10 15,-22c6,-13 20,-24 33,-26c25,-4 62,23 62,45c0,7 11,13 25,13c22,0 24,-3 15,-17c-6,-10 -28,-46 -48,-81c-73,-124 -139,-121 -208,8c-13,25 -31,55 -40,68c-16,21 -16,22 10,22c15,0 26,-6 26,-13zm80,-7c0,-19 -31,-23 -48,-6c-15,15 -14,16 16,16c18,0 32,-5 32,-10zm108,-6c-9,-9 -24,-14 -32,-11c-27,11 -17,27 16,27c30,0 31,-1 16,-16z"/>
  </g>
 </g>
</svg>